<svg id="Layer_1" data-name="Layer 1" xmlns="http://www.w3.org/2000/svg" viewBox="0 0 408.24 73.34"><defs><style>.cls-1{fill:#231f20;}.cls-2{fill:#3363fa;}</style></defs><path class="cls-1" d="M80.81,247.5c0-4.47-.11-8.33-.29-11.64h8.32l.46,6.2h.23A14.05,14.05,0,0,1,102,234.92c6.36,0,14,4.09,14,17.35v22.06h-9.51v-20.8c0-6.08-2.27-10.44-7.74-10.44-4.18,0-6.93,3.11-8,6a9.3,9.3,0,0,0-.42,3v22.25H80.81Z" transform="translate(-80.52 -217.75)"/><path class="cls-1" d="M136.6,224.87a5.37,5.37,0,1,1-5.35-5.38A5.2,5.2,0,0,1,136.6,224.87Zm-10.14,49.46V235.86H136v38.47Z" transform="translate(-80.52 -217.75)"/><path class="cls-1" d="M146.63,247.5c0-4.47-.12-8.33-.3-11.64h8.07l.42,6h.23a13.14,13.14,0,0,1,12-6.94,11.26,11.26,0,0,1,10.73,7.61h.15a16.23,16.23,0,0,1,4.66-5.07,12.83,12.83,0,0,1,8.08-2.54c6,0,13,4.23,13,17.52v21.89h-9.21v-20.6c0-7-2.58-10.64-7.19-10.64a7.66,7.66,0,0,0-7,5.33,11.4,11.4,0,0,0-.52,3.31v22.6h-9.22V252.88c0-6.08-2.54-9.79-6.93-9.79-3.92,0-6.34,3.28-7.26,5.76a9.82,9.82,0,0,0-.5,3.26v22.22h-9.21Z" transform="translate(-80.52 -217.75)"/><path class="cls-1" d="M213.85,274.33c.17-2.49.29-6.71.29-10.92V217.75h9.51v23.78h.14c2.35-3.94,6.76-6.61,12.8-6.61,9.58,0,16.73,7.78,16.64,19.63,0,13.88-9.2,20.73-18,20.73-5.07,0-9.85-1.93-12.74-7.08h-.15l-.39,6.13Zm9.8-16.66a11.92,11.92,0,0,0,.2,2.25,9.67,9.67,0,0,0,9.29,7.43c6.32,0,10.42-4.68,10.42-12.47,0-6.64-3.55-12.26-10.27-12.26a9.69,9.69,0,0,0-9.35,7.8,11.28,11.28,0,0,0-.29,2.53Z" transform="translate(-80.52 -217.75)"/><path class="cls-1" d="M261.27,217.75h9.5v56.58h-9.5Z" transform="translate(-80.52 -217.75)"/><path class="cls-1" d="M287.87,257.93c.3,6.43,5.78,9.72,12.14,9.72a29.3,29.3,0,0,0,11.08-1.92l1.42,6.9a33.64,33.64,0,0,1-13.75,2.65c-12.48,0-19.94-7.89-19.94-19.64,0-9.91,6.13-20.72,19-20.72,13.07,0,16.87,11.27,16.87,19.07a18.62,18.62,0,0,1-.36,3.94Zm17.83-7c0-2.69-1.27-9.22-8.46-9.22-6.32,0-8.91,5.48-9.4,9.22Z" transform="translate(-80.52 -217.75)"/><path class="cls-2" d="M358.13,235.86c-.18,2.41-.3,5.41-.3,10.7v21.85c0,7.72-1.59,14-5.76,17.84s-9.93,4.84-15,4.84-10.5-1.19-13.85-3.45l2.08-7.71a22.18,22.18,0,0,0,11.73,3.41c6.31,0,11.44-3.37,11.44-12v-3.37h-.15a13.53,13.53,0,0,1-11.75,6.12c-9.45,0-16.71-7.67-16.71-18.76,0-12.45,8.34-20.38,17.77-20.38,6.27,0,9.85,3,11.73,6.4h.15l.31-5.46Zm-9.8,16a9.91,9.91,0,0,0-.27-2.56c-1.11-4.07-4.18-6.88-8.56-6.88-5.47,0-9.94,4.48-9.94,12.52,0,5.93,3.34,11.67,9.92,11.67a9,9,0,0,0,8.45-6.52,14.68,14.68,0,0,0,.4-3.48Z" transform="translate(-80.52 -217.75)"/><path class="cls-2" d="M368.15,248.74c0-5.68-.08-9.4-.3-12.88h8.2l.32,7.82h.26c1.9-5.93,6.5-8.76,10.69-8.76a8.4,8.4,0,0,1,2.29.23v9.4a12.62,12.62,0,0,0-3-.33c-4.87,0-8,3.12-8.77,7.61a17.77,17.77,0,0,0-.2,2.68v19.82h-9.5Z" transform="translate(-80.52 -217.75)"/><path class="cls-2" d="M406.73,224.87a5.37,5.37,0,1,1-5.36-5.38A5.2,5.2,0,0,1,406.73,224.87Zm-10.15,49.46V235.86h9.51v38.47Z" transform="translate(-80.52 -217.75)"/><path class="cls-2" d="M452.88,217.75v45.66c0,4.21.12,8.43.3,10.92h-8.54l-.39-6.59h-.14c-2.45,4.83-7.33,7.54-13.07,7.54-9.14,0-16.9-7.72-16.9-19.63-.07-12.68,8.16-20.73,17.75-20.73,5.58,0,9.58,2.38,11.34,5.29h.15V217.75Zm-9.5,34.58a13.34,13.34,0,0,0-.23-2.59,9.17,9.17,0,0,0-9-7.17c-6.49,0-10.34,5.35-10.34,12.56,0,6.88,3.73,12.09,10.27,12.09a9.39,9.39,0,0,0,9-7.64,12.94,12.94,0,0,0,.28-3Z" transform="translate(-80.52 -217.75)"/><path class="cls-2" d="M463.12,265.06a21.29,21.29,0,0,0,10.17,3.07c4.4,0,6.2-1.86,6.2-4.29,0-2.67-1.63-3.91-6.41-5.4-7.6-2.3-10.86-6.53-10.82-11.31,0-6.81,5.5-12.21,14.53-12.21a21.76,21.76,0,0,1,10.42,2.43l-1.87,7a18.08,18.08,0,0,0-8.5-2.4c-3.41,0-5.36,1.63-5.36,4.1s2,3.72,6.93,5.3c7.13,2.28,10.3,5.78,10.35,11.74,0,6.75-5.11,12.16-15.51,12.16a25.21,25.21,0,0,1-12.05-2.85Z" transform="translate(-80.52 -217.75)"/></svg>